<svg xmlns="http://www.w3.org/2000/svg" viewBox="0 0 512 512">
  <rect width="512" height="512" fill="#053E17"/>
  <rect x="112" y="112" width="288" height="288" rx="32" fill="#ffffff"/>
  <g fill="#053E17">
    <rect x="144" y="144" width="80" height="80" rx="8"/>
    <rect x="164" y="164" width="40" height="40" rx="2" fill="#ffffff"/>
    <rect x="176" y="176" width="16" height="16"/>
    <rect x="288" y="144" width="80" height="80" rx="8"/>
    <rect x="308" y="164" width="40" height="40" rx="2" fill="#ffffff"/>
    <rect x="320" y="176" width="16" height="16"/>
    <rect x="144" y="288" width="80" height="80" rx="8"/>
    <rect x="164" y="308" width="40" height="40" rx="2" fill="#ffffff"/>
    <rect x="176" y="320" width="16" height="16"/>
    <rect x="248" y="144" width="24" height="24"/><rect x="248" y="180" width="24" height="24"/>
    <rect x="248" y="216" width="24" height="24"/><rect x="284" y="240" width="24" height="24"/>
    <rect x="320" y="240" width="24" height="24"/><rect x="356" y="240" width="24" height="24"/>
    <rect x="240" y="276" width="24" height="24"/><rect x="276" y="276" width="24" height="24"/>
    <rect x="312" y="276" width="24" height="24"/><rect x="348" y="276" width="24" height="24"/>
    <rect x="240" y="312" width="24" height="24"/><rect x="276" y="312" width="24" height="24"/>
    <rect x="312" y="312" width="24" height="24"/><rect x="348" y="312" width="24" height="24"/>
    <rect x="240" y="348" width="24" height="24"/><rect x="276" y="348" width="24" height="24"/>
    <rect x="312" y="348" width="24" height="24"/><rect x="348" y="348" width="24" height="24"/>
  </g>
</svg>
